<svg width="150" height="28" viewBox="0 0 150 28" fill="none" xmlns="http://www.w3.org/2000/svg">
<path d="M12.7587 0.818237H18.2303V19.0739C18.2303 20.7614 17.851 22.2273 17.0925 23.4716C16.3425 24.716 15.2984 25.6748 13.9604 26.3481C12.6223 27.0214 11.0669 27.358 9.29418 27.358C7.71747 27.358 6.28566 27.081 4.99872 26.527C3.72031 25.9645 2.70611 25.1123 1.95611 23.9702C1.20611 22.8197 0.835371 21.3751 0.843894 19.6364H6.35384C6.37088 20.3268 6.51151 20.9191 6.77571 21.4134C7.04844 21.8992 7.41918 22.2742 7.88793 22.5384C8.3652 22.7941 8.9277 22.9219 9.57543 22.9219C10.2572 22.9219 10.8325 22.777 11.3013 22.4873C11.7786 22.189 12.1408 21.7543 12.3879 21.1833C12.6351 20.6123 12.7587 19.9091 12.7587 19.0739V0.818237Z" fill="white"/>
<path d="M38.9788 0.818237H44.5144V17.8211C44.5144 19.7302 44.0584 21.4006 43.1465 22.8324C42.243 24.2643 40.9774 25.3807 39.3496 26.1819C37.7217 26.9745 35.8254 27.3708 33.6607 27.3708C31.4874 27.3708 29.5868 26.9745 27.959 26.1819C26.3311 25.3807 25.0655 24.2643 24.1621 22.8324C23.2587 21.4006 22.807 19.7302 22.807 17.8211V0.818237H28.3425V17.3481C28.3425 18.3452 28.5598 19.2316 28.9945 20.0072C29.4376 20.7827 30.0598 21.3921 30.8609 21.8353C31.6621 22.2785 32.5953 22.5001 33.6607 22.5001C34.7345 22.5001 35.6678 22.2785 36.4604 21.8353C37.2615 21.3921 37.8794 20.7827 38.3141 20.0072C38.7572 19.2316 38.9788 18.3452 38.9788 17.3481V0.818237Z" fill="white"/>
<path d="M49.0687 27.0001V0.818237H59.3982C61.384 0.818237 63.0758 1.1975 64.4735 1.95602C65.8712 2.70602 66.9366 3.75006 67.6695 5.08812C68.411 6.41767 68.7818 7.95176 68.7818 9.6904C68.7818 11.429 68.4068 12.9631 67.6568 14.2927C66.9068 15.6222 65.8201 16.6577 64.3968 17.3992C62.982 18.1407 61.269 18.5114 59.2576 18.5114H52.6738V14.0753H58.3627C59.4281 14.0753 60.3059 13.8921 60.9962 13.5256C61.6951 13.1506 62.215 12.635 62.5559 11.9787C62.9053 11.314 63.08 10.5512 63.08 9.6904C63.08 8.82108 62.9053 8.06256 62.5559 7.41483C62.215 6.75858 61.6951 6.25148 60.9962 5.89352C60.2974 5.52704 59.411 5.34381 58.3371 5.34381H54.6042V27.0001H49.0687Z" fill="white"/>
<path d="M77.9128 0.818237V27.0001H72.3773V0.818237H77.9128Z" fill="white"/>
<path d="M81.47 5.38216V0.818237H102.973V5.38216H94.9572V27.0001H89.4856V5.38216H81.47Z" fill="white"/>
<path d="M106.514 27.0001V0.818237H124.156V5.38216H112.05V11.6208H123.248V16.1847H112.05V22.4361H124.207V27.0001H106.514Z" fill="white"/>
<path d="M128.557 27.0001V0.818237H138.887C140.864 0.818237 142.551 1.17193 143.949 1.87932C145.355 2.57818 146.425 3.57108 147.158 4.85801C147.899 6.13642 148.27 7.64068 148.27 9.3708C148.27 11.1094 147.895 12.6052 147.145 13.858C146.395 15.1023 145.308 16.0569 143.885 16.7216C142.47 17.3864 140.757 17.7188 138.746 17.7188H131.83V13.2699H137.851C138.908 13.2699 139.786 13.1251 140.485 12.8353C141.183 12.5455 141.703 12.1109 142.044 11.5313C142.394 10.9518 142.568 10.2316 142.568 9.3708C142.568 8.50148 142.394 7.76852 142.044 7.17193C141.703 6.57534 141.179 6.12363 140.472 5.81682C139.773 5.50148 138.891 5.34381 137.825 5.34381H134.092V27.0001H128.557ZM142.696 15.0853L149.203 27.0001H143.092L136.726 15.0853H142.696Z" fill="white"/>
</svg>
